<svg width="24" height="24" viewBox="0 0 24 24" fill="none" xmlns="http://www.w3.org/2000/svg">
<mask id="mask0_354_1771" style="mask-type:luminance" maskUnits="userSpaceOnUse" x="0" y="5" width="14" height="19">
<path d="M0 5.83594H13.8121V23.8843H0V5.83594Z" fill="white"/>
</mask>
<g mask="url(#mask0_354_1771)">
<path d="M11.9972 18.1202C10.7979 18.1202 9.68057 17.7894 8.68804 17.127C7.69483 16.4654 6.95043 15.6384 6.45417 14.6039L1.48948 6C0.455588 7.86151 0 9.88843 0 11.9981C0 15.0174 0.99321 17.6239 2.9376 19.8576C4.88198 22.0913 7.32263 23.4146 10.2189 23.8701L13.6934 17.8307C13.3626 17.9548 12.7422 18.1202 11.9972 18.1202Z" fill="#E77279"/>
</g>
<mask id="mask1_354_1771" style="mask-type:luminance" maskUnits="userSpaceOnUse" x="2" y="0" width="21" height="11">
<path d="M2.35547 0H22.3146V10.3637H2.35547V0Z" fill="white"/>
</mask>
<g mask="url(#mask1_354_1771)">
<path d="M8.22472 7.03186C9.34131 6.16347 10.5827 5.7913 11.9887 5.7913H22.2903C21.2144 3.97114 19.7663 2.6472 17.946 1.6134C16.1256 0.537575 14.1399 0 11.9887 0C10.1277 0 8.34878 0.413519 6.73524 1.1992C5.1217 1.98557 3.59087 3.14342 2.51562 4.63277L5.99016 10.3414C6.32169 9.01742 7.10744 7.90092 8.22472 7.03186Z" fill="#E77279"/>
</g>
<path d="M23.0766 7.49219H16.1261C17.3261 8.69139 18.1532 10.2634 18.1532 12.0009C18.1532 13.2828 17.781 14.4413 17.078 15.5172L12.1133 23.997C15.3817 23.9557 18.1952 22.7971 20.5118 20.4394C22.8284 18.0817 23.9864 15.2684 23.9864 12.0009C23.9864 10.4702 23.7382 8.8568 23.0766 7.49219Z" fill="#E77279"/>
<path d="M12.0036 7.44531C14.4863 7.44531 16.5547 9.51359 16.5547 11.9954C16.5547 14.4772 14.4863 16.5454 12.0036 16.5454C9.52158 16.5454 7.45312 14.4772 7.45312 11.9954C7.45312 9.51359 9.52158 7.44531 12.0036 7.44531Z" fill="#E77279"/>
</svg>
